<svg width="33" height="33" viewBox="0 0 33 33" fill="none" xmlns="http://www.w3.org/2000/svg">
<path d="M25.7123 22.3438C26.1248 23.8288 27.2797 24.9837 28.7647 25.3962M4.68848 30.25C4.68848 24.9288 9.98226 20.625 16.4998 20.625C17.9298 20.625 19.3047 20.8312 20.5835 21.2162M23.3748 9.625C23.3748 13.422 20.2967 16.5 16.4998 16.5C12.7028 16.5 9.62476 13.422 9.62476 9.625C9.62476 5.82804 12.7028 2.75 16.4998 2.75C20.2967 2.75 23.3748 5.82804 23.3748 9.625ZM26.4135 21.6425L21.546 26.5101C21.3535 26.7026 21.1747 27.06 21.1335 27.3213L20.8722 29.1775C20.776 29.8513 21.2435 30.3188 21.9172 30.2225L23.7735 29.9613C24.0347 29.92 24.406 29.7413 24.5847 29.5488L29.4522 24.6813C30.291 23.8426 30.6897 22.8663 29.4522 21.6288C28.2285 20.405 27.2523 20.8038 26.4135 21.6425Z" stroke="#001B6C" stroke-width="1.5" stroke-linecap="round" stroke-linejoin="round"/>
</svg>
