<svg width="15" height="16" viewBox="0 0 15 16" fill="none" xmlns="http://www.w3.org/2000/svg">
<g clip-path="url(#clip0_640_1006)">
<path d="M7.24521 3.24731H3.08661C2.77149 3.24731 2.46927 3.37249 2.24644 3.59531C2.02362 3.81814 1.89844 4.12036 1.89844 4.43548V12.7527C1.89844 13.0678 2.02362 13.37 2.24644 13.5928C2.46927 13.8157 2.77149 13.9409 3.08661 13.9409H11.4038C11.7189 13.9409 12.0212 13.8157 12.244 13.5928C12.4668 13.37 12.592 13.0678 12.592 12.7527V8.59408M11.7009 2.35618C11.9372 2.11984 12.2577 1.98706 12.592 1.98706C12.9262 1.98706 13.2468 2.11984 13.4831 2.35618C13.7195 2.59252 13.8522 2.91307 13.8522 3.24731C13.8522 3.58155 13.7195 3.90209 13.4831 4.13844L7.8393 9.78225L5.46295 10.3763L6.05704 8L11.7009 2.35618Z" stroke="#1E1E1E" stroke-width="1.5" stroke-linecap="round" stroke-linejoin="round"/>
</g>
<defs>
<clipPath id="clip0_640_1006">
<rect width="14.2581" height="14.2581" fill="white" transform="translate(0.709961 0.870972)"/>
</clipPath>
</defs>
</svg>
