
<svg width="24" height="24" viewBox="0 0 24 24" fill="none" xmlns="http://www.w3.org/2000/svg">
<path d="M10.5799 20.75L11.1102 20.2196L11.0766 20.186L11.039 20.1569L10.5799 20.75ZM19.0799 19.25L18.3674 19.0157L18.3589 19.0416L18.3523 19.0681L19.0799 19.25ZM21.4799 11.95L20.7736 11.6977L20.7704 11.7067L20.7674 11.7157L21.4799 11.95ZM14.5799 8.14997L13.8388 8.03417L13.8374 8.0439L14.5799 8.14997ZM15.0799 4.94997L14.3477 4.78727L14.3426 4.81059L14.3389 4.83419L15.0799 4.94997ZM13.7799 2.74997L13.5165 3.45222L13.5295 3.45709L13.5427 3.46148L13.7799 2.74997ZM11.5799 3.44997L12.2024 3.86835L12.2039 3.86599L11.5799 3.44997ZM7.02075 18.943L10.1208 21.343L11.039 20.1569L7.93901 17.7569L7.02075 18.943ZM10.0496 21.2803C10.3829 21.6137 10.8529 21.808 11.2488 21.9211C11.6632 22.0395 12.1074 22.1 12.4799 22.1V20.6C12.2523 20.6 11.9466 20.5604 11.6609 20.4788C11.3569 20.392 11.1769 20.2863 11.1102 20.2196L10.0496 21.2803ZM12.4799 22.1H16.2799V20.6H12.4799V22.1ZM16.2799 22.1C17.0596 22.1 17.8369 21.8114 18.4603 21.3552C19.0842 20.8987 19.6068 20.2348 19.8075 19.4319L18.3523 19.0681C18.253 19.4651 17.9756 19.8512 17.5745 20.1447C17.1729 20.4385 16.7001 20.6 16.2799 20.6V22.1ZM19.7924 19.4842L22.1924 12.1842L20.7674 11.7157L18.3674 19.0157L19.7924 19.4842ZM22.1862 12.2022C22.5102 11.295 22.3983 10.3785 21.8837 9.68007C21.3726 8.98641 20.5328 8.59997 19.5799 8.59997V10.1C20.127 10.1 20.4872 10.3135 20.6761 10.5699C20.8614 10.8214 20.9496 11.205 20.7736 11.6977L22.1862 12.2022ZM19.5799 8.59997H15.5799V10.1H19.5799V8.59997ZM15.5799 8.59997C15.49 8.59997 15.4216 8.56366 15.3798 8.51625C15.3434 8.47499 15.3022 8.39737 15.3223 8.25603L13.8374 8.0439C13.671 9.20857 14.5365 10.1 15.5799 10.1V8.59997ZM15.3209 8.26575L15.8209 5.06575L14.3389 4.83419L13.8389 8.03418L15.3209 8.26575ZM15.812 5.11267C16.1014 3.81069 15.255 2.45111 14.0171 2.03846L13.5427 3.46148C14.1047 3.64883 14.4584 4.28925 14.3477 4.78727L15.812 5.11267ZM14.0432 2.04772C13.4462 1.82384 12.8129 1.87209 12.2861 2.0532C11.7642 2.23258 11.265 2.57027 10.9558 3.03394L12.2039 3.86599C12.2948 3.72966 12.4955 3.56736 12.7737 3.47173C13.0468 3.37785 13.3136 3.3761 13.5165 3.45222L14.0432 2.04772ZM10.9574 3.03159L6.85742 9.13159L8.10235 9.96835L12.2023 3.86835L10.9574 3.03159ZM3.12988 18.35V8.54997H1.62988V18.35H3.12988ZM3.12988 8.54997C3.12988 7.93448 3.26488 7.71719 3.36359 7.62607C3.47705 7.52134 3.73737 7.39997 4.37988 7.39997V5.89997C3.6224 5.89997 2.88272 6.02859 2.34617 6.52387C1.79489 7.03274 1.62988 7.76546 1.62988 8.54997H3.12988ZM4.37988 7.39997H5.37988V5.89997H4.37988V7.39997ZM5.37988 7.39997C6.0224 7.39997 6.28272 7.52134 6.39617 7.62607C6.49489 7.71719 6.62988 7.93448 6.62988 8.54997H8.12988C8.12988 7.76546 7.96488 7.03274 7.41359 6.52387C6.87705 6.02859 6.13737 5.89997 5.37988 5.89997V7.39997ZM6.62988 8.54997V18.35H8.12988V8.54997H6.62988ZM6.62988 18.35C6.62988 18.9655 6.49489 19.1827 6.39617 19.2739C6.28272 19.3786 6.0224 19.5 5.37988 19.5V21C6.13737 21 6.87705 20.8713 7.41359 20.3761C7.96488 19.8672 8.12988 19.1345 8.12988 18.35H6.62988ZM5.37988 19.5H4.37988V21H5.37988V19.5ZM4.37988 19.5C3.73737 19.5 3.47705 19.3786 3.36359 19.2739C3.26488 19.1827 3.12988 18.9655 3.12988 18.35H1.62988C1.62988 19.1345 1.79489 19.8672 2.34617 20.3761C2.88272 20.8713 3.6224 21 4.37988 21V19.5Z" fill="#001B6C"/>
</svg>
