<svg width="25" height="25" viewBox="0 0 25 25" fill="none" xmlns="http://www.w3.org/2000/svg">
<path d="M5.67711 14.4375L6.31965 14.8244L6.32132 14.8216L5.67711 14.4375ZM4.4792 16.4271L3.83667 16.0403L3.83656 16.0405L4.4792 16.4271ZM5.6042 19.4792L5.36375 20.1896L5.36653 20.1906L5.6042 19.4792ZM19.4271 19.4792L19.1917 18.7671L19.1894 18.7679L19.4271 19.4792ZM20.5521 16.4271L21.1952 16.0413L21.1946 16.0403L20.5521 16.4271ZM19.3542 14.4375L18.7044 14.8124L18.7117 14.8244L19.3542 14.4375ZM14.4479 3.33337L14.2388 4.05363C14.5133 4.13331 14.8092 4.0501 15.0018 3.83905C15.1945 3.628 15.2505 3.32579 15.1462 3.05972L14.4479 3.33337ZM13.4479 3.12504L13.3549 3.86925L13.3577 3.86959L13.4479 3.12504ZM10.5938 3.33337L9.89549 3.05972C9.7912 3.32584 9.84723 3.62809 10.04 3.83915C10.2327 4.0502 10.5287 4.13335 10.8031 4.05356L10.5938 3.33337ZM12.5209 2.28129C8.65873 2.28129 5.52086 5.41916 5.52086 9.28129H7.02086C7.02086 6.24759 9.48716 3.78129 12.5209 3.78129V2.28129ZM5.52086 9.28129V12.2917H7.02086V9.28129H5.52086ZM5.52086 12.2917C5.52086 12.5191 5.46958 12.8491 5.37241 13.1992C5.2753 13.549 5.14907 13.8586 5.0329 14.0535L6.32132 14.8216C6.52807 14.4748 6.69872 14.0292 6.81776 13.6004C6.93673 13.1718 7.02086 12.6998 7.02086 12.2917H5.52086ZM5.03459 14.0507L3.83667 16.0403L5.12172 16.814L6.31964 14.8244L5.03459 14.0507ZM3.83656 16.0405C3.36073 16.8313 3.26224 17.7168 3.55321 18.5027C3.84386 19.2876 4.49426 19.8953 5.36375 20.1896L5.84464 18.7688C5.35997 18.6048 5.07808 18.301 4.95987 17.9818C4.84199 17.6634 4.85808 17.2521 5.12184 16.8138L3.83656 16.0405ZM5.36653 20.1906C10.0104 21.7421 15.0209 21.7421 19.6648 20.1906L19.1894 18.7679C14.8541 20.2163 10.1772 20.2163 5.84186 18.7679L5.36653 20.1906ZM19.6625 20.1913C21.382 19.6229 22.1285 17.5967 21.1952 16.0413L19.909 16.813C20.3507 17.5492 19.9931 18.5022 19.1917 18.7671L19.6625 20.1913ZM21.1946 16.0403L19.9967 14.0507L18.7117 14.8244L19.9096 16.814L21.1946 16.0403ZM20.0038 14.0627C19.8897 13.8649 19.7648 13.5522 19.6686 13.2014C19.5722 12.8498 19.5209 12.5193 19.5209 12.2917H18.0209C18.0209 12.6996 18.1049 13.1711 18.2221 13.5981C18.3394 14.026 18.5062 14.4685 18.7046 14.8123L20.0038 14.0627ZM19.5209 12.2917V9.28129H18.0209V12.2917H19.5209ZM19.5209 9.28129C19.5209 5.42958 16.3726 2.28129 12.5209 2.28129V3.78129C15.5442 3.78129 18.0209 6.258 18.0209 9.28129H19.5209ZM14.6571 2.61311C14.3015 2.5099 13.9282 2.42776 13.5382 2.38049L13.3577 3.86959C13.6552 3.90565 13.9485 3.96935 14.2388 4.05363L14.6571 2.61311ZM13.541 2.38083C12.4454 2.24388 11.3838 2.32267 10.3844 2.61319L10.8031 4.05356C11.5954 3.82325 12.4505 3.7562 13.3549 3.86925L13.541 2.38083ZM11.2921 3.60703C11.4847 3.11548 11.963 2.77087 12.5209 2.77087V1.27087C11.3287 1.27087 10.307 2.0096 9.89549 3.05972L11.2921 3.60703ZM12.5209 2.77087C13.0787 2.77087 13.557 3.11548 13.7497 3.60703L15.1462 3.05972C14.7347 2.00961 13.713 1.27087 12.5209 1.27087V2.77087ZM14.8959 19.8542C14.8959 21.1587 13.8254 22.2292 12.5209 22.2292V23.7292C14.6538 23.7292 16.3959 21.9872 16.3959 19.8542H14.8959ZM12.5209 22.2292C11.8742 22.2292 11.2709 21.9602 10.8429 21.5322L9.7822 22.5929C10.4792 23.2898 11.4592 23.7292 12.5209 23.7292V22.2292ZM10.8429 21.5322C10.4148 21.1042 10.1459 20.5009 10.1459 19.8542H8.64586C8.64586 20.9159 9.08523 21.8959 9.7822 22.5929L10.8429 21.5322Z" fill="#787878"/>
</svg>
