<svg width="14" height="14" viewBox="0 0 14 14" fill="none" xmlns="http://www.w3.org/2000/svg">
<path d="M10.5 12.8333C10.0139 12.8333 9.60069 12.6632 9.26042 12.3229C8.92014 11.9826 8.75 11.5694 8.75 11.0833C8.75 11.0152 8.75486 10.9448 8.76458 10.8718C8.77431 10.7989 8.78889 10.7333 8.80833 10.675L4.69583 8.28329C4.53056 8.42913 4.34583 8.54336 4.14167 8.626C3.9375 8.70864 3.72361 8.74996 3.5 8.74996C3.01389 8.74996 2.60069 8.57982 2.26042 8.23954C1.92014 7.89926 1.75 7.48607 1.75 6.99996C1.75 6.51385 1.92014 6.10065 2.26042 5.76038C2.60069 5.4201 3.01389 5.24996 3.5 5.24996C3.72361 5.24996 3.9375 5.29128 4.14167 5.37392C4.34583 5.45656 4.53056 5.57079 4.69583 5.71663L8.80833 3.32496C8.78889 3.26663 8.77431 3.201 8.76458 3.12808C8.75486 3.05517 8.75 2.98468 8.75 2.91663C8.75 2.43051 8.92014 2.01732 9.26042 1.67704C9.60069 1.33676 10.0139 1.16663 10.5 1.16663C10.9861 1.16663 11.3993 1.33676 11.7396 1.67704C12.0799 2.01732 12.25 2.43051 12.25 2.91663C12.25 3.40274 12.0799 3.81593 11.7396 4.15621C11.3993 4.49649 10.9861 4.66663 10.5 4.66663C10.2764 4.66663 10.0625 4.62531 9.85833 4.54267C9.65417 4.46003 9.46944 4.34579 9.30417 4.19996L5.19167 6.59163C5.21111 6.64996 5.22569 6.71558 5.23542 6.7885C5.24514 6.86142 5.25 6.9319 5.25 6.99996C5.25 7.06801 5.24514 7.1385 5.23542 7.21142C5.22569 7.28433 5.21111 7.34996 5.19167 7.40829L9.30417 9.79996C9.46944 9.65413 9.65417 9.53989 9.85833 9.45725C10.0625 9.37461 10.2764 9.33329 10.5 9.33329C10.9861 9.33329 11.3993 9.50343 11.7396 9.84371C12.0799 10.184 12.25 10.5972 12.25 11.0833C12.25 11.5694 12.0799 11.9826 11.7396 12.3229C11.3993 12.6632 10.9861 12.8333 10.5 12.8333ZM10.5 3.49996C10.6653 3.49996 10.8038 3.44406 10.9156 3.33225C11.0274 3.22045 11.0833 3.0819 11.0833 2.91663C11.0833 2.75135 11.0274 2.61281 10.9156 2.501C10.8038 2.3892 10.6653 2.33329 10.5 2.33329C10.3347 2.33329 10.1962 2.3892 10.0844 2.501C9.97257 2.61281 9.91667 2.75135 9.91667 2.91663C9.91667 3.0819 9.97257 3.22045 10.0844 3.33225C10.1962 3.44406 10.3347 3.49996 10.5 3.49996ZM3.5 7.58329C3.66528 7.58329 3.80382 7.52739 3.91563 7.41558C4.02743 7.30378 4.08333 7.16524 4.08333 6.99996C4.08333 6.83468 4.02743 6.69614 3.91563 6.58433C3.80382 6.47253 3.66528 6.41663 3.5 6.41663C3.33472 6.41663 3.19618 6.47253 3.08438 6.58433C2.97257 6.69614 2.91667 6.83468 2.91667 6.99996C2.91667 7.16524 2.97257 7.30378 3.08438 7.41558C3.19618 7.52739 3.33472 7.58329 3.5 7.58329ZM10.5 11.6666C10.6653 11.6666 10.8038 11.6107 10.9156 11.4989C11.0274 11.3871 11.0833 11.2486 11.0833 11.0833C11.0833 10.918 11.0274 10.7795 10.9156 10.6677C10.8038 10.5559 10.6653 10.5 10.5 10.5C10.3347 10.5 10.1962 10.5559 10.0844 10.6677C9.97257 10.7795 9.91667 10.918 9.91667 11.0833C9.91667 11.2486 9.97257 11.3871 10.0844 11.4989C10.1962 11.6107 10.3347 11.6666 10.5 11.6666Z" fill="#1D1B20"/>
</svg>
