<svg width="13" height="15" viewBox="0 0 13 15" fill="none" xmlns="http://www.w3.org/2000/svg">
<path d="M1 3.29412H12M5.125 10.9412V6.35294M7.875 10.9412V6.35294M9.25 14H3.75C2.99061 14 2.375 13.3153 2.375 12.4706V4.05882C2.375 3.63649 2.6828 3.29412 3.0625 3.29412H9.9375C10.3172 3.29412 10.625 3.63649 10.625 4.05882V12.4706C10.625 13.3153 10.0094 14 9.25 14ZM5.125 3.29412H7.875C8.2547 3.29412 8.5625 2.95175 8.5625 2.52941V1.76471C8.5625 1.34237 8.2547 1 7.875 1H5.125C4.7453 1 4.4375 1.34237 4.4375 1.76471V2.52941C4.4375 2.95175 4.7453 3.29412 5.125 3.29412Z" stroke="#FB3C1A" stroke-linecap="round" stroke-linejoin="round"/>
</svg>
