<svg width="16" height="16" viewBox="0 0 16 16" fill="none" xmlns="http://www.w3.org/2000/svg">
<path d="M2.66699 4.11765H13.3337M6.66699 11.1765V6.94118M9.33366 11.1765V6.94118M10.667 14H5.33366C4.59728 14 4.00033 13.3679 4.00033 12.5882V4.82353C4.00033 4.43368 4.2988 4.11765 4.66699 4.11765H11.3337C11.7018 4.11765 12.0003 4.43368 12.0003 4.82353V12.5882C12.0003 13.3679 11.4034 14 10.667 14ZM6.66699 4.11765H9.33366C9.70185 4.11765 10.0003 3.80161 10.0003 3.41176V2.70588C10.0003 2.31603 9.70185 2 9.33366 2H6.66699C6.2988 2 6.00033 2.31603 6.00033 2.70588V3.41176C6.00033 3.80161 6.2988 4.11765 6.66699 4.11765Z" stroke="#E3984E" stroke-linecap="round" stroke-linejoin="round"/>
</svg>
