<svg width="20" height="20" viewBox="0 0 20 20" fill="none" xmlns="http://www.w3.org/2000/svg">
<g clip-path="url(#clip0_271_498)">
<path fill-rule="evenodd" clip-rule="evenodd" d="M7.21284 0.39363C3.32156 1.52076 0.407538 4.94819 0.0395508 9.10714H4.61127C4.88031 6.03751 5.77038 3.07031 7.21284 0.39363ZM4.61127 10.8929H0.0395508C0.407538 15.0519 3.32156 18.4793 7.21284 19.6064C5.77037 16.9297 4.88031 13.9625 4.61127 10.8929ZM9.50337 19.9879C7.78048 17.265 6.71406 14.1455 6.40443 10.8929H13.596C13.2864 14.1455 12.2199 17.265 10.497 19.9879C10.3325 19.9959 10.1668 20 10.0002 20C9.83363 20 9.66798 19.9959 9.50337 19.9879ZM12.7876 19.6064C16.6789 18.4793 19.5929 15.0519 19.9609 10.8929H15.3891C15.1201 13.9625 14.23 16.9297 12.7876 19.6064ZM15.3891 9.10714H19.9609C19.5929 4.94817 16.6789 1.52073 12.7876 0.393619C14.23 3.0703 15.1201 6.0375 15.3891 9.10714ZM9.50338 0.0121279C9.66798 0.00407403 9.83364 0 10.0002 0C10.1668 0 10.3325 0.00407329 10.497 0.0121257C12.2199 2.73494 13.2864 5.85453 13.596 9.10714H6.40443C6.71406 5.85453 7.78048 2.73494 9.50338 0.0121279Z" fill="#001B6C"/>
</g>
<defs>
<clipPath id="clip0_271_498">
<rect width="20" height="20" fill="white"/>
</clipPath>
</defs>
</svg>
